<svg width="38" height="38" viewBox="0 0 38 38" fill="none" xmlns="http://www.w3.org/2000/svg">
<g clip-path="url(#clip0_54_62)">
<path d="M1.85545 38C1.48842 38.0001 1.12962 37.8913 0.824425 37.6874C0.519231 37.4835 0.281358 37.1937 0.140893 36.8547C0.00042861 36.5156 -0.0363165 36.1424 0.0353059 35.7825C0.106928 35.4225 0.2837 35.0919 0.543262 34.8324L34.8323 0.543282C35.1804 0.195268 35.6524 -0.000244141 36.1445 -0.000244141C36.6367 -0.000244141 37.1087 0.195268 37.4567 0.543282C37.8047 0.891296 38.0002 1.3633 38.0002 1.85547C38.0002 2.34764 37.8047 2.81964 37.4567 3.16766L3.16764 37.4567C2.99548 37.6292 2.79093 37.7661 2.56575 37.8593C2.34056 37.9525 2.09917 38.0003 1.85545 38Z" fill="#ECF2F9"/>
<path d="M36.1446 38C35.9008 38.0003 35.6594 37.9525 35.4343 37.8593C35.2091 37.7661 35.0045 37.6292 34.8324 37.4567L0.543282 3.16766C0.195268 2.81964 -0.000244141 2.34764 -0.000244141 1.85547C-0.000244141 1.3633 0.195268 0.891296 0.543282 0.543282C0.891296 0.195268 1.3633 -0.000244141 1.85547 -0.000244141C2.34764 -0.000244141 2.81964 0.195268 3.16766 0.543282L37.4567 34.8324C37.7163 35.0919 37.8931 35.4225 37.9647 35.7825C38.0363 36.1424 37.9996 36.5156 37.8591 36.8547C37.7186 37.1937 37.4808 37.4835 37.1756 37.6874C36.8704 37.8913 36.5116 38.0001 36.1446 38Z" fill="#ECF2F9"/>
</g>
<defs>
<clipPath id="clip0_54_62">
<rect width="38" height="38" fill="white"/>
</clipPath>
</defs>
</svg>
