<svg width="86" height="85" viewBox="0 0 86 85" fill="none" xmlns="http://www.w3.org/2000/svg">
<path d="M84.6168 65.3702C81.5887 66.1405 79.716 65.4034 78.0359 62.88C74.2641 57.2288 70.1004 51.8366 66.0828 46.3448C65.5648 45.6343 65.027 44.937 64.3563 44.0538C59.6016 50.4686 54.8535 56.578 50.3977 62.9331C48.8039 65.2042 47.1305 66.1936 44.1555 65.3901L62.032 41.3975L45.3906 19.7292C48.2527 19.1714 50.2316 19.4569 51.9848 22.0202C55.8563 27.678 60.1262 33.0635 64.3828 38.7612C68.666 33.0835 72.8828 27.6913 76.8672 22.0866C78.4676 19.8155 80.1875 18.9522 83.0629 19.7889C80.8848 22.6776 78.7531 25.5198 76.6082 28.3421C73.7129 32.1471 70.8707 35.9987 67.8691 39.7241C66.8 41.0522 66.9727 41.9155 67.9289 43.1706C73.4805 50.4686 78.9656 57.8397 84.6168 65.3702ZM1.3832 40.9991C1.86133 38.6018 2.18008 36.1581 2.84414 33.8073C6.82852 19.5764 23.1645 13.6596 34.3871 22.4784C40.9613 27.6514 42.5949 34.9428 42.2695 43.1639H5.21484C4.65703 57.9128 15.2754 66.8178 28.809 62.2757C33.557 60.6819 36.3527 56.9632 37.7539 52.3147C38.4645 49.9839 39.6399 49.6186 41.8313 50.2827C40.709 56.0999 38.1656 60.9608 32.8531 64.0022C24.8844 68.5577 13.509 67.0835 7.52578 60.755C3.99297 57.0362 2.49219 52.4077 1.82813 47.4073C1.72852 46.6104 1.52266 45.8268 1.36328 45.0366C1.37656 43.6908 1.3832 42.3449 1.3832 40.9991ZM5.28125 40.0096H38.7699C38.5508 29.3448 31.9102 21.7678 22.8324 21.7014C12.8715 21.6218 5.71289 29.0194 5.28125 40.0096Z" fill="black"/>
</svg>
