<svg width="86" height="85" viewBox="0 0 86 85" fill="none" xmlns="http://www.w3.org/2000/svg">
<g clip-path="url(#clip0_50_366)">
<path d="M83.8969 38.7128L46.7851 1.60296C44.6492 -0.534321 41.1828 -0.534321 39.0442 1.60296L31.3377 9.30941L41.1137 19.0854C43.3855 18.3177 45.9906 18.8327 47.8015 20.6436C49.621 22.4661 50.1324 25.0935 49.3461 27.3726L58.7675 36.7943C61.0469 36.009 63.6769 36.517 65.4974 38.3406C68.0418 40.8839 68.0418 45.0061 65.4974 47.5511C62.9524 50.0965 58.8302 50.0965 56.2839 47.5511C54.3701 45.6353 53.8973 42.8246 54.8661 40.4669L46.0799 31.6807L46.0789 54.8023C46.7158 55.1173 47.2976 55.5333 47.8015 56.0342C50.3459 58.5775 50.3459 62.7 47.8015 65.247C45.2565 67.7911 41.1323 67.7911 38.591 65.247C36.0466 62.7 36.0466 58.5779 38.591 56.0345C39.2007 55.4245 39.9253 54.9413 40.7229 54.6131V31.2759C39.9242 30.9499 39.1991 30.4665 38.591 29.8545C36.6632 27.9294 36.1997 25.1008 37.1875 22.7338L27.5506 13.0959L2.10371 38.5411C-0.0345703 40.6804 -0.0345703 44.1471 2.10371 46.2847L39.2162 83.3952C41.3528 85.5328 44.8185 85.5328 46.9578 83.3952L83.8966 46.4571C86.0342 44.3188 86.0342 40.8501 83.8966 38.7128" fill="#F05030"/>
</g>
<defs>
<clipPath id="clip0_50_366">
<rect width="85" height="85" fill="white" transform="translate(0.5)"/>
</clipPath>
</defs>
</svg>
