<svg width="86" height="85" viewBox="0 0 86 85" fill="none" xmlns="http://www.w3.org/2000/svg">
<g clip-path="url(#clip0_50_306)">
<path d="M85.4751 0H0.524902C0.511149 0 0.5 0.0111492 0.5 0.0249023V84.9751C0.5 84.9889 0.511149 85 0.524902 85H85.4751C85.4889 85 85.5 84.9889 85.5 84.9751V0.0249023C85.5 0.0111492 85.4889 0 85.4751 0Z" fill="#F7DF1E"/>
<path d="M54.2891 61.4258C55.9492 64.248 58.2734 66.2402 62.0918 66.2402C65.4121 66.2402 67.5703 64.5801 67.5703 62.2559C67.5703 59.5996 65.4121 58.6035 61.7598 56.9434L59.7676 56.1133C53.957 53.623 50.1387 50.6348 50.1387 44.1602C50.1387 38.1836 54.6211 33.5352 61.7598 33.5352C66.9062 33.5352 70.5586 35.3613 73.0488 40.0098L66.9062 43.9941C65.5781 41.5039 64.084 40.5078 61.7598 40.5078C59.4355 40.5078 57.9414 42.002 57.9414 43.9941C57.9414 46.3184 59.4355 47.3145 62.9219 48.8086L64.9141 49.6387C71.7207 52.627 75.5391 55.4492 75.5391 62.2559C75.5391 69.3945 69.8945 73.3789 62.2578 73.3789C54.7871 73.3789 49.9727 69.8926 47.6484 65.2441L54.2891 61.4258ZM26.0664 62.0898C27.3945 64.248 28.3906 66.2402 31.2129 66.2402C33.8691 66.2402 35.5293 65.2441 35.5293 61.2598V33.7012H43.498V60.9277C43.498 69.2285 38.6836 72.8809 31.5449 72.8809C25.0703 72.8809 21.418 69.5605 19.5918 65.5762L26.0664 62.0898Z" fill="black"/>
</g>
<defs>
<clipPath id="clip0_50_306">
<rect x="0.5" width="85" height="85" rx="10" fill="white"/>
</clipPath>
</defs>
</svg>
