<svg width="86" height="85" viewBox="0 0 86 85" fill="none" xmlns="http://www.w3.org/2000/svg">
<path d="M74.7688 41.8591L74.7652 41.8626C74.7652 45.2803 71.9638 48.0605 68.5177 48.0605C65.0681 48.0499 62.2773 45.2732 62.2773 41.852C62.2773 39.8864 63.1981 38.1368 64.6325 36.9999L64.6467 36.9893L64.6715 36.9645C64.8698 36.8157 65.0929 36.667 65.3161 36.5218C65.3161 36.5218 65.3444 36.5218 65.3444 36.497C65.4436 36.4474 65.5427 36.373 65.6419 36.3199C65.6667 36.3199 65.6915 36.2986 65.7163 36.2986C65.8154 36.2491 65.9394 36.1995 66.0633 36.1499C66.1838 36.1003 66.3148 36.0543 66.414 36.0047C66.4388 36.0047 66.46 35.9799 66.4848 35.9799C66.584 35.9551 66.6831 35.9055 66.7858 35.8807C66.8106 35.8807 66.8567 35.8559 66.885 35.8559C67.0054 35.8311 67.1081 35.8064 67.2321 35.7851H67.2569L67.6288 35.7072C67.6536 35.7072 67.6996 35.7072 67.7279 35.6824C67.8271 35.6824 67.9263 35.6576 68.0254 35.6576H68.1458C68.2698 35.6576 68.3973 35.6328 68.5425 35.6328H68.8648C68.964 35.6328 69.0419 35.6328 69.1411 35.6576H69.1906C69.389 35.6824 69.5873 35.7072 69.7856 35.7568C72.6473 36.3801 74.7617 38.8734 74.7688 41.8591ZM36.6108 41.8378V41.8201C36.6108 38.9443 38.5977 36.5253 41.2788 35.8453L41.3213 35.8347V35.8311L41.6683 35.7603H41.7392L42.0367 35.7072H42.1358L42.4086 35.6824H43.3754L43.6233 35.7072L43.7473 35.732L44.02 35.7816L44.1192 35.8064L44.4663 35.8772H44.4911L44.785 35.9799L44.8842 36.0047L45.1321 36.1003L45.2065 36.1251L45.504 36.2491H45.5288L45.8511 36.4261L45.8475 36.4226H45.8723L46.1698 36.5926L46.2158 36.6174L46.4921 36.7909L46.5169 36.8157L47.3598 37.5276L47.3846 37.5524C48.4436 38.6609 49.0988 40.1591 49.0988 41.813V41.8378C48.9819 45.1741 46.2265 47.8339 42.8477 47.8339C39.469 47.8339 36.7136 45.1741 36.5967 41.8484V41.8378H36.6108Z" fill="#99415B"/>
<path d="M9.3398 63.0488C9.9348 59.454 11.5958 56.0823 13.186 52.8594L13.4588 52.2927C14.0006 52.4911 14.5744 52.6398 15.1694 52.739C14.2273 57.9558 16.9048 63.3427 22.1181 66.0025L23.0602 66.4948L24.0767 66.1265C28.4152 64.6 32.4385 62.1173 35.9873 58.7952C37.9175 57.0067 39.6175 55.0127 41.066 52.8417L41.1475 52.7177C41.7177 52.8133 42.2879 52.8381 42.8617 52.8381C47.9935 52.8275 52.3108 49.3673 53.5823 44.6746L53.6 44.5967H57.7685C59.0506 49.3744 63.375 52.8381 68.5104 52.8381H68.514C70.5717 52.8381 72.4771 52.2715 74.1204 51.3152C74.765 53.1569 74.9633 55.08 74.6163 56.9996H74.6198C74.0177 60.2579 72.0273 62.9567 69.2896 64.5256L69.24 64.554C66.5342 66.1052 63.2085 66.5975 59.7094 67.0898C57.379 67.3873 55.3885 67.7486 53.4335 68.2019L53.8515 68.1204C48.6913 69.3777 43.7329 71.8392 38.9198 74.2015C32.7644 77.2261 26.9596 80.0806 21.5798 80.0806H21.4913C18.6438 80.0806 16.0088 79.174 13.866 77.6369C8.42251 73.8898 8.69167 66.8844 9.3398 63.0488Z" fill="#99415B"/>
<path d="M43.0001 35.6826H42.4122L42.1395 35.7074H42.0403L41.7428 35.7605H41.672L41.3249 35.8314V35.8349L41.2824 35.8455C38.5978 36.5255 36.6145 38.9445 36.6145 41.8203V41.838V41.8487C36.7314 45.1743 39.4868 47.8341 42.8655 47.8341C42.9116 47.8341 42.9576 47.8341 43.0037 47.8341V35.6826H43.0001ZM13.4591 52.293L13.1864 52.8597C11.5962 56.0826 9.93866 59.4507 9.34012 63.0491C8.69554 66.8847 8.42283 73.8901 13.8699 77.6301C16.0126 79.1672 18.6476 80.0739 21.4951 80.0739H21.5766C26.9564 80.0739 32.7612 77.2228 38.9166 74.1947C40.266 73.5324 41.626 72.863 43.0001 72.2149V52.8314C42.9541 52.8314 42.9045 52.8314 42.8585 52.8314C42.2847 52.8314 41.7145 52.8066 41.1443 52.711L41.0628 52.8349C39.6143 55.0095 37.9143 57.0035 35.9841 58.7885C32.4318 62.1105 28.412 64.5968 24.0735 66.1197L23.0605 66.4951L22.1185 66.0028C16.9051 63.343 14.2276 57.9562 15.1697 52.7393C14.5747 52.6401 14.001 52.4914 13.4591 52.293Z" fill="#85394F"/>
<path d="M16.9088 35.6572C20.3583 35.6572 23.1598 38.441 23.1598 41.8587C23.1598 45.2764 20.3583 48.0637 16.9123 48.0637C13.4663 48.0637 10.6577 45.2835 10.6577 41.8658C10.6577 38.4445 13.4627 35.6572 16.9088 35.6572Z" fill="#99415B"/>
<path d="M16.9088 35.6572C13.4627 35.6572 10.6577 38.4445 10.6577 41.8658C10.6577 45.2799 13.4663 48.0601 16.9088 48.0637V35.6572ZM68.525 35.6572C65.079 35.6572 62.274 38.4445 62.274 41.8658C62.274 45.2799 65.0825 48.0601 68.525 48.0637V35.6572Z" fill="#85394F"/>
<path d="M36.0156 4.92285H75.0413L66.0808 31.1312C65.709 31.202 65.3371 31.326 64.9687 31.4499L55.5444 12.3781L46.0881 31.326C45.7162 31.2056 45.316 31.1312 44.9194 31.0568L36.0156 4.92285Z" fill="#99415B"/>
<path d="M55.5267 4.92285H36.0156L44.9194 31.0568C45.316 31.1312 45.7162 31.2056 46.0881 31.326L55.5302 12.4064V4.92285H55.5267Z" fill="#85394F"/>
</svg>
