<svg width="38" height="38" viewBox="0 0 38 38" fill="none" xmlns="http://www.w3.org/2000/svg">
<path d="M35.3281 10.9844H2.67188C2.01875 10.9844 1.48438 10.45 1.48438 9.79688C1.48438 9.14375 2.01875 8.60938 2.67188 8.60938H35.3281C35.9813 8.60938 36.5156 9.14375 36.5156 9.79688C36.5156 10.45 35.9813 10.9844 35.3281 10.9844Z" fill="#2A2D43"/>
<path d="M19.2969 20.4844H2.67188C2.01875 20.4844 1.48438 19.95 1.48438 19.2969C1.48438 18.6438 2.01875 18.1094 2.67188 18.1094H19.2969C19.95 18.1094 20.4844 18.6438 20.4844 19.2969C20.4844 19.95 19.95 20.4844 19.2969 20.4844Z" fill="#2A2D43"/>
<path d="M35.3281 29.9844H2.67188C2.01875 29.9844 1.48438 29.45 1.48438 28.7969C1.48438 28.1438 2.01875 27.6094 2.67188 27.6094H35.3281C35.9813 27.6094 36.5156 28.1438 36.5156 28.7969C36.5156 29.45 35.9813 29.9844 35.3281 29.9844Z" fill="#2A2D43"/>
</svg>
