<svg width="86" height="85" viewBox="0 0 86 85" fill="none" xmlns="http://www.w3.org/2000/svg">
<path fill-rule="evenodd" clip-rule="evenodd" d="M58.9626 28.4297C60.0284 31.5129 60.7961 34.6606 61.0484 37.9231C61.3619 41.9706 61.2184 45.9895 60.3651 49.9705C60.3419 50.0801 60.2927 50.183 60.2562 50.2893C59.9886 50.29 59.7157 50.2568 59.454 50.2973C57.2434 50.6446 55.0347 51.0045 52.826 51.3624C50.543 51.7323 48.2566 52.0876 45.9775 52.4827C45.17 52.6221 44.1706 52.4555 43.8446 53.5724C43.8353 53.603 43.7423 53.6083 43.6885 53.6255L43.7988 46.9511C43.7609 41.5828 43.7237 36.2145 43.6865 30.8462L44.7504 30.6636C46.4902 30.3787 48.23 30.0898 49.9712 29.8129C52.0491 29.4829 54.1289 29.1621 56.2081 28.8401C57.1252 28.6973 58.0436 28.5665 58.9626 28.4297Z" fill="#439934"/>
<path fill-rule="evenodd" clip-rule="evenodd" d="M41.4918 73.0828C40.3696 72.118 39.2081 71.1956 38.1323 70.1809C32.3437 64.721 28.1097 58.2948 26.0245 50.5472C25.4501 48.4149 25.0669 46.2481 24.9441 44.0447C24.8577 42.5028 24.7329 40.9469 24.8418 39.4129C25.132 35.3329 25.7217 31.2921 26.9183 27.3621L26.9841 27.2705C27.1003 27.4252 27.2676 27.562 27.3267 27.7367C28.4948 31.1765 29.6543 34.619 30.8077 38.0635C34.4322 48.8877 38.052 59.7146 41.6824 70.5362C41.7535 70.7473 41.9374 70.9207 42.0696 71.1112L41.4918 73.0828Z" fill="#45A538"/>
<path fill-rule="evenodd" clip-rule="evenodd" d="M58.9626 28.4299C58.0435 28.5667 57.1245 28.6975 56.2074 28.839C54.1282 29.1611 52.0484 29.4818 49.9705 29.8118C48.2293 30.0888 46.4895 30.3776 44.7497 30.6625L43.6858 30.8451L43.6779 30.1512C43.6427 29.5807 43.5822 29.011 43.5756 28.4405C43.5298 24.8028 43.5012 21.1651 43.4561 17.5273C43.4282 15.2503 43.3863 12.9739 43.3398 10.6975C43.3113 9.28301 43.2807 7.86789 43.217 6.45543C43.1825 5.69641 43.0603 4.94137 43.0105 4.18234C42.9826 3.74605 43.0211 3.30645 43.0297 2.86816C43.5723 3.91937 44.1029 4.97855 44.6607 6.0218C45.5419 7.67133 46.9457 8.88656 48.2094 10.2127C53.2052 15.4535 56.7519 21.5469 58.9626 28.4299Z" fill="#46A037"/>
<path fill-rule="evenodd" clip-rule="evenodd" d="M43.6878 53.6251C43.7416 53.6078 43.8352 53.6025 43.8438 53.572C44.1699 52.455 45.1693 52.6217 45.9768 52.4822C48.2559 52.0878 50.5422 51.7319 52.8253 51.362C55.0339 51.004 57.2426 50.6441 59.4533 50.2968C59.7149 50.2556 59.9878 50.2895 60.2555 50.2888C59.8424 51.7631 59.517 53.2692 58.9931 54.7029C58.3981 56.3292 57.6782 57.9163 56.9139 59.4722C55.7717 61.7984 54.3486 63.9679 52.6951 65.9554C51.4208 67.4881 50.0004 68.9045 48.5766 70.3037C47.7897 71.0773 46.862 71.7075 45.9987 72.4028L45.7749 72.25L44.9687 71.5607L44.1347 69.7326C43.5603 67.5923 43.2588 65.4135 43.209 63.1995L43.2243 62.827L43.3378 61.216C43.3757 60.6661 43.4261 60.117 43.4494 59.5658C43.535 57.5856 43.6094 55.6053 43.6878 53.6251Z" fill="#409433"/>
<path fill-rule="evenodd" clip-rule="evenodd" d="M43.6878 53.6247C43.6094 55.605 43.535 57.5852 43.4507 59.5661C43.4274 60.1173 43.377 60.6664 43.3391 61.2163L42.8311 61.4082C41.7029 58.0866 40.574 54.8001 39.4696 51.505C37.6435 46.0537 35.8392 40.5938 34.0157 35.1412C32.5435 30.7398 31.0593 26.343 29.5665 21.9483C29.4967 21.7424 29.2962 21.5817 29.1567 21.3998L32.408 15.4219C32.5196 15.6158 32.667 15.7971 32.7374 16.0056C34.2415 20.4568 35.7429 24.9087 37.2317 29.3652C39.1681 35.1625 41.0926 40.9644 43.0277 46.7623C43.1047 46.9941 43.2322 47.2079 43.3537 47.4675L43.7987 46.9496C43.7615 49.1748 43.7243 51.3995 43.6878 53.6247Z" fill="#4FAA41"/>
<path fill-rule="evenodd" clip-rule="evenodd" d="M29.1577 21.4004C29.2971 21.5823 29.497 21.743 29.5674 21.9489C31.0602 26.3437 32.5444 30.7404 34.0166 35.1418C35.8401 40.5944 37.6444 46.0544 39.4706 51.5057C40.5742 54.8001 41.7031 58.0872 42.8321 61.4088L43.3401 61.2169L43.2265 62.8279L43.1236 63.1991C42.9469 64.9629 42.7982 66.7306 42.583 68.4904C42.4748 69.3723 42.245 70.2382 42.0704 71.1114C41.9389 70.9208 41.7543 70.7475 41.6832 70.5364C38.0528 59.7141 34.433 48.8879 30.8085 38.0637C29.6551 34.6192 28.4956 31.1767 27.3275 27.7369C27.2684 27.5622 27.1017 27.4254 26.9849 27.2707C27.7087 25.3137 28.4332 23.3567 29.1577 21.4004Z" fill="#4AA73C"/>
<path fill-rule="evenodd" clip-rule="evenodd" d="M43.7984 46.9507L43.3535 47.4687C43.2319 47.2091 43.1044 46.9946 43.0274 46.7635C41.093 40.9655 39.1679 35.1636 37.2315 29.3664C35.7426 24.9098 34.2412 20.458 32.7371 16.0068C32.6674 15.7982 32.5199 15.6163 32.4077 15.423L36.4286 10.1338C36.5554 10.3031 36.7361 10.4539 36.8018 10.6445C37.9181 13.9123 39.0244 17.1841 40.1241 20.458C41.1514 23.5153 42.1635 26.5773 43.2027 29.6307C43.2724 29.8352 43.5148 29.98 43.6769 30.1526L43.6848 30.8466C43.7233 36.2135 43.7612 41.5825 43.7984 46.9507Z" fill="#57AE47"/>
<path fill-rule="evenodd" clip-rule="evenodd" d="M43.678 30.1509C43.516 29.9783 43.2736 29.8335 43.2039 29.629C42.1646 26.5756 41.1526 23.5136 40.1253 20.4563C39.0256 17.1825 37.9193 13.9113 36.803 10.6428C36.7372 10.4522 36.5566 10.3014 36.4298 10.1321C37.7373 8.8518 39.0043 7.52566 40.3643 6.30445C41.5736 5.21938 42.5458 4.05594 42.5903 2.34133C42.5923 2.27027 42.6295 2.19922 42.6866 2L43.0312 2.86727C43.0226 3.30621 42.9834 3.74516 43.012 4.18145C43.0618 4.94047 43.1839 5.69551 43.2185 6.45453C43.2822 7.86699 43.3128 9.28211 43.3413 10.6966C43.3871 12.973 43.429 15.2494 43.4575 17.5264C43.502 21.1642 43.5313 24.8019 43.5771 28.4396C43.5824 29.0114 43.6421 29.5805 43.678 30.1509Z" fill="#60B24F"/>
<path fill-rule="evenodd" clip-rule="evenodd" d="M42.069 71.1113C42.2436 70.2381 42.4734 69.3715 42.5816 68.4903C42.7975 66.7312 42.9455 64.9628 43.1222 63.199L43.166 63.1924L43.2098 63.1997C43.2597 65.4137 43.5611 67.5925 44.1355 69.7327C44.0187 69.8868 43.8533 70.0243 43.7916 70.1982C43.3088 71.5596 42.8539 72.9315 42.3685 74.2928C42.3021 74.4788 42.1175 74.6236 41.9873 74.7869L41.4912 73.0829L42.069 71.1113Z" fill="#A9AA88"/>
<path fill-rule="evenodd" clip-rule="evenodd" d="M41.9878 74.7876C42.1179 74.6242 42.3032 74.4794 42.369 74.2935C42.8544 72.9322 43.3099 71.5609 43.7921 70.1989C43.8538 70.0249 44.0185 69.8875 44.136 69.7334L44.9694 71.5622C44.8047 71.796 44.5776 72.0065 44.486 72.2668L42.8896 76.9544C42.8238 77.1423 42.5994 77.2751 42.4493 77.4339L41.9878 74.7876Z" fill="#B6B598"/>
<path fill-rule="evenodd" clip-rule="evenodd" d="M42.4497 77.4332C42.6004 77.2751 42.8242 77.1416 42.89 76.9537L44.4864 72.2661C44.5774 72.0064 44.8051 71.7953 44.9698 71.5615L45.7767 72.2502C45.3869 72.6353 45.1704 73.0802 45.3005 73.6427L45.0555 74.4449C44.9439 74.5823 44.7826 74.7019 44.7274 74.8593C44.1703 76.455 43.6384 78.0594 43.0772 79.6551C43.0062 79.8577 42.809 80.0164 42.6695 80.1943C42.5971 79.2733 42.5234 78.3542 42.4497 77.4332Z" fill="#C2C1A7"/>
<path fill-rule="evenodd" clip-rule="evenodd" d="M42.6698 80.1943C42.8086 80.0156 43.0058 79.8569 43.0775 79.6551C43.6386 78.06 44.1706 76.4556 44.7277 74.8592C44.7828 74.7025 44.9435 74.5823 45.0558 74.4448L44.7177 78.1271C44.6274 78.2313 44.4966 78.3223 44.4535 78.4438C44.0716 79.5156 43.7117 80.5954 43.3285 81.6672C43.2495 81.8883 43.0981 82.0835 42.9799 82.2901C42.875 82.1526 42.687 82.0198 42.6784 81.8763C42.6445 81.3179 42.6678 80.7554 42.6698 80.1943Z" fill="#CECDB7"/>
<path fill-rule="evenodd" clip-rule="evenodd" d="M42.9794 82.29C43.0976 82.0828 43.249 81.8875 43.328 81.6671C43.7119 80.5959 44.0711 79.5162 44.453 78.4437C44.4961 78.3222 44.6276 78.2319 44.7173 78.127L44.7252 80.5441L43.9164 82.6187L42.9794 82.29Z" fill="#DBDAC7"/>
<path fill-rule="evenodd" clip-rule="evenodd" d="M43.9165 82.6194L44.7253 80.5449L44.892 82.9993L43.9165 82.6194Z" fill="#EBE9DC"/>
<path fill-rule="evenodd" clip-rule="evenodd" d="M45.3002 73.6435C45.17 73.0811 45.3858 72.6355 45.7763 72.251L46.0001 72.4037L45.3002 73.6435Z" fill="#CECDB7"/>
<path fill-rule="evenodd" clip-rule="evenodd" d="M43.2097 63.2L43.1659 63.1927L43.1221 63.1993L43.225 62.8281L43.2097 63.2Z" fill="#4FAA41"/>
</svg>
