<svg width="86" height="85" viewBox="0 0 86 85" fill="none" xmlns="http://www.w3.org/2000/svg">
<g clip-path="url(#clip0_50_311)">
<path d="M76.4689 85H9.53133C4.48431 85 0.5 81.0157 0.5 75.9688V9.03133C0.5 3.98431 4.48431 0 9.53133 0H76.4689C81.5157 0 85.5002 3.98431 85.5002 9.03133V75.9688C85.5 81.0157 81.5157 85 76.4689 85Z" fill="#5CA4DA"/>
<path d="M69.0312 0C65.8436 13.8126 57.6092 28.6875 44.8594 41.4376C31.3125 54.9844 15.1093 63.4844 0.5 66.1406V9.03134C0.5 3.98431 4.48431 0 9.53133 0H69.0312Z" fill="#6DAFE0"/>
<path d="M64.2501 36.9218C68.5002 29.4844 70.0939 22.5781 66.3751 19.1249C62.6564 15.4062 56.0157 16.9999 48.5782 21.25C44.3281 13.8125 39.2813 9.03127 34.2345 10.3594C29.1876 11.6875 27.3282 18.3282 27.3282 26.8282C18.8282 26.8282 12.1875 28.9532 10.8594 33.7345C9.53127 38.7813 14.3125 43.8281 21.75 48.0782C17.4999 55.5157 15.9062 62.422 19.6249 65.8751C23.3437 69.5938 29.9844 68.0002 37.4218 63.7501C41.6719 71.1875 46.7188 75.9688 51.7656 74.6407C56.8124 73.3126 58.6719 66.6719 58.6719 58.1719C67.1719 58.1719 73.8126 56.0468 75.1407 51.2656C76.469 46.2188 71.6877 41.1717 64.2501 36.9218ZM63.7189 21.7811C65.3126 23.3748 64.5159 28.4219 60.7971 34.7968C58.6721 33.7343 56.2815 32.6718 53.6252 31.875C52.8283 29.4844 51.7658 27.0938 50.7034 24.7031C57.0782 20.9844 61.8595 20.1875 63.7189 21.7811ZM45.6564 52.5937C41.9377 51.7968 39.0157 51 35.5628 49.9375C34.5002 46.4843 33.7033 43.5625 32.9065 39.8438C35.2972 37.1876 37.4222 35.0626 40.344 32.4064C44.0627 33.2033 46.9847 34 50.4377 35.0626C51.5002 38.5157 52.2971 41.4375 53.0939 45.1562C50.7033 48.078 48.5782 50.2031 45.6564 52.5937ZM53.8908 50.4687C54.1564 51.5312 54.1564 52.8593 54.1564 53.9218C53.0939 53.9218 52.0314 53.6562 50.7033 53.6562C52.297 52.0625 52.5627 51.7968 53.8908 50.4687ZM41.6719 56.0468C40.6094 56.8438 39.8125 57.3749 39.0157 58.1719C38.4846 57.1094 37.9532 56.0468 37.6876 54.9843C39.5471 55.2499 39.5471 55.5155 41.6719 56.0468ZM30.7813 48.078C29.7188 47.5469 28.6563 47.2811 27.5938 46.7499C28.1249 45.953 28.9219 44.8905 29.7188 44.0937C29.9846 45.953 30.2502 45.953 30.7813 48.078ZM32.1094 34.5312C31.8438 33.4687 31.8438 32.1406 31.8438 31.0781C32.9064 31.0781 33.9689 31.3437 35.297 31.3437C33.7033 32.9375 33.4377 33.2031 32.1094 34.5312ZM44.3283 28.953C45.3908 28.1561 46.1878 27.6249 46.9845 26.828C47.5157 27.8905 48.0471 28.953 48.3126 30.0155C46.4532 29.75 46.4532 29.4844 44.3283 28.953ZM55.2189 36.9218C56.2815 37.453 57.344 37.7188 58.4065 38.2499C57.8753 39.0469 57.0784 40.1094 56.2815 40.9062C56.0157 39.0469 55.7501 39.0469 55.2189 36.9218ZM35.5626 14.3437C37.6876 13.8125 41.6719 16.9999 45.3907 23.375C43.2656 24.7031 41.4063 26.2968 39.2813 27.8907C36.6251 27.3595 34.2345 27.0938 31.5783 26.8282C31.5783 19.6561 33.1719 14.8749 35.5626 14.3437ZM14.8439 35.0624C15.375 32.9373 20.1563 31.0781 27.5939 31.0781C27.8595 33.4687 28.1251 36.1249 28.6565 38.7811C27.0628 40.9062 25.4689 42.7654 24.1408 44.8905C17.5001 40.9062 14.3127 37.1874 14.8439 35.0624ZM22.2813 63.2187C20.6876 61.625 21.4844 56.578 25.2031 50.2031C27.3282 51.2656 29.7188 52.3281 32.375 53.1249C33.1719 55.5155 34.2345 57.9061 35.2968 60.2967C28.922 64.0157 24.1408 64.8124 22.2813 63.2187ZM50.4377 70.6562C48.3126 71.1873 44.3283 68 40.6096 61.6248C42.7346 60.2967 44.5939 58.7031 46.7189 57.1092C49.3752 57.6403 51.7658 57.9061 54.422 58.1717C54.422 65.3438 52.8283 70.125 50.4377 70.6562ZM71.1564 49.9375C70.6252 52.0625 65.844 53.9218 58.4063 53.9218C58.1407 51.5312 57.8751 48.875 57.3438 46.2188C58.9375 44.0937 60.5313 42.2344 61.8595 40.1094C68.5002 44.0937 71.6877 47.8124 71.1564 49.9375Z" fill="white"/>
<path d="M43 48.3438C46.2275 48.3438 48.8438 45.7274 48.8438 42.5C48.8438 39.2726 46.2275 36.6562 43 36.6562C39.7726 36.6562 37.1562 39.2726 37.1562 42.5C37.1562 45.7274 39.7726 48.3438 43 48.3438Z" fill="white"/>
</g>
<defs>
<clipPath id="clip0_50_311">
<rect width="85" height="85" fill="white" transform="translate(0.5)"/>
</clipPath>
</defs>
</svg>
