<svg width="86" height="85" viewBox="0 0 86 85" fill="none" xmlns="http://www.w3.org/2000/svg">
<path d="M78.3881 65.1445L44.4877 84.3359V69.3879L65.5783 57.7734L78.3881 65.1445ZM80.7123 63.0461V22.9434L68.3076 30.1152V55.8875L80.7057 63.0395L80.7123 63.0461ZM7.6123 65.1445L41.4795 84.3227V69.3879L20.3822 57.7734L7.6123 65.1445ZM5.28809 63.0461V22.9434L17.6928 30.1152V55.8875L5.28809 63.0461ZM6.74238 20.3469L41.5127 0.664062V15.1141L19.2334 27.366L19.0541 27.4656L6.74238 20.3469ZM79.2447 20.3469L44.4877 0.664062V15.1141L66.767 27.3594L66.9463 27.459L79.258 20.3469H79.2447Z" fill="#8ED6FB"/>
<path d="M41.5125 65.9881L20.6676 54.5197V31.8221L41.5125 43.8283V65.9881ZM44.4875 65.9881L65.3324 54.533V31.8221L44.4875 43.8283V65.9881ZM22.082 29.2189L43 17.7041L63.918 29.2189L43 41.2783L22.082 29.2189Z" fill="#1C78C0"/>
</svg>
